HIERARCHY
ROOT root
{
	OFFSET 0.000000 0.000000 0.000000
	CHANNELS 6 Xposition Yposition Zposition Zrotation Yrotation Xrotation
	JOINT lhip
	{
		OFFSET 0.058581 -0.082280 -0.017664
		CHANNELS 3 Zrotation Yrotation Xrotation
		JOINT lknee
		{
			OFFSET 0.043451 -0.386469 0.008037
			CHANNELS 3 Zrotation Yrotation Xrotation
			JOINT lankle
			{
				OFFSET -0.014790 -0.426874 -0.037428
				CHANNELS 3 Zrotation Yrotation Xrotation
				JOINT ltoe
				{
					OFFSET 0.041054 -0.060286 0.122042
					CHANNELS 3 Zrotation Yrotation Xrotation
					End Site
					{
						OFFSET 0.000000 0.000000 0.000000
					}
				}
			}
		}
	}
	JOINT rhip
	{
		OFFSET -0.060310 -0.090513 -0.013543
		CHANNELS 3 Zrotation Yrotation Xrotation
		JOINT rknee
		{
			OFFSET -0.043257 -0.383688 -0.004843
			CHANNELS 3 Zrotation Yrotation Xrotation
			JOINT rankle
			{
				OFFSET 0.019056 -0.420046 -0.034562
				CHANNELS 3 Zrotation Yrotation Xrotation
				JOINT rtoe
				{
					OFFSET -0.034840 -0.062106 0.130323
					CHANNELS 3 Zrotation Yrotation Xrotation
					End Site
					{
						OFFSET 0.000000 0.000000 0.000000
					}
				}
			}
		}
	}
	JOINT lowerback
	{
		OFFSET 0.004439 0.124404 -0.038385
		CHANNELS 3 Zrotation Yrotation Xrotation
		JOINT upperback
		{
			OFFSET 0.004488 0.137956 0.026820
			CHANNELS 3 Zrotation Yrotation Xrotation
			JOINT chest
			{
				OFFSET -0.002265 0.056032 0.002855
				CHANNELS 3 Zrotation Yrotation Xrotation
				JOINT lowerneck
				{
					OFFSET -0.013390 0.211636 -0.033468
					CHANNELS 3 Zrotation Yrotation Xrotation
					JOINT upperneck
					{
						OFFSET 0.010113 0.088937 0.050410
						CHANNELS 3 Zrotation Yrotation Xrotation
						End Site
						{
							OFFSET 0.000000 0.000000 0.000000
						}
					}
				}
				JOINT lclavicle
				{
					OFFSET 0.071702 0.114000 -0.018898
					CHANNELS 3 Zrotation Yrotation Xrotation
					JOINT lshoulder
					{
						OFFSET 0.122921 0.045205 -0.019046
						CHANNELS 3 Zrotation Yrotation Xrotation
						JOINT lelbow
						{
							OFFSET 0.255332 -0.015649 -0.022946
							CHANNELS 3 Zrotation Yrotation Xrotation
							JOINT lwrist
							{
								OFFSET 0.265709 0.012698 -0.007375
								CHANNELS 3 Zrotation Yrotation Xrotation
								End Site
								{
									OFFSET 0.000000 0.000000 0.000000
								}
							}
						}
					}
				}
				JOINT rclavicle
				{
					OFFSET -0.082954 0.112472 -0.023707
					CHANNELS 3 Zrotation Yrotation Xrotation
					JOINT rshoulder
					{
						OFFSET -0.113228 0.046853 -0.008472
						CHANNELS 3 Zrotation Yrotation Xrotation
						JOINT relbow
						{
							OFFSET -0.260127 -0.014369 -0.031269
							CHANNELS 3 Zrotation Yrotation Xrotation
							JOINT rwrist
							{
								OFFSET -0.269108 0.006794 -0.006027
								CHANNELS 3 Zrotation Yrotation Xrotation
								End Site
								{
									OFFSET 0.000000 0.000000 0.000000
								}
							}
						}
					}
				}
			}
		}
	}
}
MOTION
Frames: 14
Frame Time: 0.033333
-0.324410 0.741639 1.013048 -176.549019 1.061216 82.623203 -1.880421 3.398226 13.663226 -5.115629 -5.375274 -0.409578 5.817348 14.598580 -16.165197 0.000000 -0.000000 0.000000 0.489739 2.588510 -18.964297 -2.854533 -8.339637 44.173868 1.508568 -14.020506 -16.078978 0.000000 -0.000000 0.000000 -2.569500 -4.819273 6.692637 1.539235 -2.813928 8.376531 -0.179275 -4.047438 -2.967662 3.171385 3.287492 -1.337800 3.329777 4.178051 10.805312 -27.752665 -3.714540 3.546686 -55.658713 -9.714966 9.707847 13.955830 -30.986594 -7.063465 -1.428771 -7.337746 -2.155415 27.056791 4.387828 4.792111 58.007507 1.725470 14.236615 -11.546225 24.963782 -2.659787 8.444099 8.735423 -6.414484 
-0.324874 0.773415 1.007430 -175.822597 1.062799 82.751284 -1.535821 4.204818 15.981839 -4.868231 -6.075011 -1.009120 5.482476 14.515500 -17.485879 0.000000 -0.000000 0.000000 0.487591 2.176454 -21.268324 -2.422242 -8.875962 36.868544 1.382648 -14.084391 -15.381688 0.000000 -0.000000 0.000000 -2.828358 -5.282345 7.125203 1.753766 -2.802535 8.230480 0.132317 -4.233239 -2.953439 2.929205 3.581742 -1.430658 3.478940 4.147548 10.507785 -27.556519 -4.327260 3.536836 -55.110326 -11.068172 9.985731 14.310131 -32.206203 -7.753804 -0.444794 -7.717756 -2.140004 27.058716 4.243144 4.838539 57.957971 1.455218 14.003210 -11.627536 25.633792 -2.808050 8.389712 8.732143 -6.460736 
-0.324544 0.805762 1.000373 -175.462226 0.782956 83.101045 -1.174561 4.973183 18.057455 -4.979647 -6.677272 -1.432350 5.032608 14.377841 -18.771615 0.000000 -0.000000 0.000000 0.541909 1.370465 -23.107389 -1.931015 -8.867940 28.848806 1.114662 -13.727256 -14.254493 0.000000 -0.000000 0.000000 -3.211412 -5.370630 7.199340 1.847052 -2.768853 8.147291 0.330329 -4.313223 -3.051458 2.803203 3.816036 -1.505169 3.704260 4.157453 10.432228 -27.473751 -4.723420 3.491597 -54.530280 -12.314305 10.254861 14.469126 -32.950296 -8.406953 0.502671 -7.983390 -2.117309 27.169996 4.049187 4.966347 57.956475 1.462183 13.817349 -11.532744 25.598996 -2.920213 8.380532 8.564568 -6.228234 
-0.323631 0.839098 0.992672 -175.351704 0.365942 83.585856 -0.682564 5.771646 19.957182 -5.402103 -7.164888 -1.618132 4.320822 14.010638 -19.709658 0.000000 -0.000000 0.000000 0.683525 0.479211 -24.288355 -0.959512 -8.055944 20.478435 1.120361 -12.672137 -13.637811 0.000000 -0.000000 0.000000 -3.516413 -5.234000 6.916620 1.784065 -2.749913 8.081980 0.415153 -4.352397 -3.094764 2.723219 4.064150 -1.611295 3.917970 4.225176 10.544967 -27.528327 -4.924413 3.498826 -53.998073 -13.405510 10.296804 14.445919 -33.197076 -8.672452 1.303506 -8.246085 -2.096044 27.263133 3.858147 5.160929 58.023394 1.758117 13.640122 -11.258525 24.894662 -2.824843 8.348901 8.278875 -5.850078 
-0.322214 0.873822 0.985499 -175.175131 0.085598 84.013665 0.076144 6.326169 21.597882 -5.876160 -7.805733 -0.975148 3.375466 13.537136 -20.411290 0.000000 -0.000000 0.000000 0.926006 -0.185057 -24.740621 0.191778 -6.608531 13.168804 1.452761 -11.296789 -13.648821 0.000000 -0.000000 0.000000 -3.527418 -5.081163 6.606458 1.659596 -2.808541 7.867625 0.420576 -4.400063 -3.066177 2.598296 4.247553 -1.723898 4.056128 4.371460 10.790707 -27.724077 -5.008429 3.570536 -53.644114 -14.165328 10.216895 14.230099 -32.936702 -8.460235 2.071730 -8.350315 -2.156359 27.301599 3.628427 5.311478 58.064762 2.093729 13.433326 -10.904349 23.796188 -2.558866 8.304252 7.933238 -5.477010 
-0.320434 0.910986 0.979844 -174.635221 0.007199 84.135512 1.112492 6.412641 23.226887 -6.283184 -8.641921 0.614457 2.124036 12.910504 -20.637374 0.000000 -0.000000 0.000000 0.999267 -0.467508 -24.529519 0.988289 -5.880730 9.147530 1.724925 -10.527085 -13.851116 0.000000 -0.000000 0.000000 -3.300694 -5.189218 6.404775 1.546067 -2.814885 7.607533 0.378182 -4.512036 -2.913208 2.529744 4.437784 -1.795996 3.970379 4.344888 11.019372 -28.057783 -5.093055 3.827869 -53.536305 -14.579985 9.997404 13.912726 -32.128908 -7.868652 2.499384 -8.343350 -2.284171 27.389699 3.422231 5.428155 58.000060 2.236114 13.131115 -10.630430 22.571137 -2.235386 8.298817 7.577857 -5.366336 
-0.318398 0.951112 0.976374 -173.933732 -0.105491 84.136547 2.025246 6.071790 24.760904 -6.591605 -9.586986 2.874351 0.608928 12.274447 -20.108210 0.000000 -0.000000 0.000000 0.829735 -0.249769 -24.367791 0.980511 -6.272684 10.256691 1.477022 -10.683868 -13.877045 0.000000 -0.000000 0.000000 -3.177888 -5.556125 5.806185 1.550242 -2.666641 7.725420 0.258797 -4.608150 -2.849389 2.587720 4.663552 -1.703992 3.635946 4.183821 11.165697 -28.420441 -5.024445 4.136939 -53.845234 -14.537898 9.876629 13.615459 -30.666163 -7.374151 2.356952 -8.262863 -2.214722 27.585965 3.283048 5.498732 57.854376 2.024035 12.871519 -10.461659 21.291976 -1.980743 8.390092 7.323745 -5.369488 
-0.315901 0.994071 0.975437 -173.303464 -0.204034 84.181479 2.772381 5.405970 25.744421 -6.918154 -10.188924 6.160630 -1.137577 11.616126 -18.638632 0.000000 -0.000000 0.000000 0.782297 0.018816 -24.111890 0.491624 -7.766602 14.295011 0.552803 -11.603496 -12.587762 0.000000 -0.000000 0.000000 -3.032449 -5.907517 4.572660 1.678839 -2.489938 8.223926 0.035324 -4.672500 -2.937863 2.758231 5.011694 -1.364121 3.089160 3.939213 11.314448 -28.848790 -4.616102 4.529155 -54.454397 -14.041408 9.874482 13.347909 -28.723001 -7.056258 1.649278 -8.152521 -1.810411 27.834736 3.085015 5.521416 57.631346 1.480717 12.633262 -10.326321 20.120779 -1.759700 8.486393 7.159694 -5.274647 
-0.312908 1.039275 0.977836 -172.888285 -0.135433 84.125692 3.421720 4.474133 25.683978 -7.407271 -9.715363 11.293843 -3.218376 11.021406 -15.702624 0.000000 -0.000000 0.000000 0.829215 0.379614 -23.110181 0.320347 -9.231272 17.714217 -0.809322 -12.192110 -10.326608 0.000000 -0.000000 0.000000 -2.462379 -6.077583 3.141981 1.732588 -2.281705 8.706954 -0.348095 -4.732856 -2.965195 3.033262 5.440309 -1.131220 2.420134 3.574836 11.855290 -29.577548 -3.807171 5.041698 -54.908137 -13.246246 9.792498 13.040302 -26.635610 -6.385360 0.476994 -8.101428 -1.307710 28.140371 2.635626 5.595524 57.276459 1.028579 12.435130 -10.047446 18.967204 -1.504122 8.484972 6.991091 -5.243993 
-0.308634 1.084407 0.983136 -172.967121 0.216346 83.890619 4.260594 3.475916 23.759628 -8.435736 -7.180034 19.336510 -5.059552 10.921596 -10.763520 0.000000 -0.000000 0.000000 1.450051 1.243639 -21.450878 0.717993 -9.209460 20.382178 -2.613759 -11.943866 -9.785461 0.000000 -0.000000 0.000000 -1.671378 -5.900019 1.910293 1.738920 -2.121392 9.150012 -0.657810 -4.641912 -3.025130 3.441107 5.957306 -0.738998 1.794294 3.201296 12.316363 -30.203543 -2.712986 5.473233 -55.483441 -12.186422 9.503420 13.012945 -24.507476 -5.696979 -1.213270 -7.981088 -0.710129 28.231541 2.319071 5.723208 57.087339 0.823178 12.207646 -9.737972 17.754130 -1.193119 8.781748 6.790814 -4.995734 
-0.303412 1.127717 0.988559 -173.172426 0.549618 83.637692 4.912320 2.192867 19.888699 -8.923612 -3.112708 29.801233 -5.482893 11.254828 -4.194154 0.000000 -0.000000 0.000000 2.681416 1.947685 -19.080505 0.574758 -9.212415 21.902787 -5.057429 -12.257628 -10.854985 0.000000 -0.000000 0.000000 -1.144283 -5.263463 1.236990 1.683484 -2.192451 9.151099 -0.705963 -4.521951 -3.078370 3.857980 6.274183 -0.336475 1.411624 2.929298 12.766346 -30.399087 -1.447002 5.830653 -56.316163 -11.006145 8.969643 13.264679 -22.680792 -5.182230 -3.265417 -7.792424 -0.317113 28.088792 2.148597 5.703944 57.042089 0.620573 11.988453 -9.565339 17.066491 -0.920913 9.408227 6.768792 -4.412802 
-0.296423 1.168364 0.991631 -173.743942 1.963504 83.944587 6.772558 1.293218 13.977547 -6.374876 1.679184 41.187970 -6.390896 10.846291 4.210888 0.000000 -0.000000 0.000000 5.225058 4.734728 -16.173757 0.292598 -9.454864 21.301527 -6.120414 -14.646950 -12.460222 0.000000 -0.000000 0.000000 0.434377 -4.368996 -0.088801 1.903450 -1.811002 9.631689 -0.679351 -4.845400 -2.882519 3.192819 3.744850 -1.459462 1.629121 5.489066 14.852817 -30.179290 -1.049938 7.285667 -58.152508 -9.827764 6.472020 14.745958 -22.699706 -2.858999 -4.565794 -6.298325 -2.822363 26.961672 1.185858 8.189015 57.566939 2.533985 11.859832 -10.337182 19.354182 4.236391 12.933557 5.419592 -11.661601 
-0.292480 1.206270 0.995980 -173.989196 2.156047 83.570095 6.099022 -1.065054 9.046372 -5.157674 3.674646 49.604492 -4.300551 13.317279 6.028898 0.000000 -0.000000 0.000000 6.286725 4.309025 -12.522920 0.687442 -8.615432 20.253089 -7.043189 -15.249826 -13.442043 0.000000 -0.000000 0.000000 0.992509 -3.217989 0.381503 1.777650 -1.897703 9.087008 -0.826145 -4.631562 -2.541331 2.763099 2.234851 -1.824250 2.191169 6.405375 15.303012 -29.747316 -0.804136 8.033020 -59.374678 -8.342313 6.079810 14.957217 -22.878887 -1.203208 -2.754089 -5.500048 -6.625727 25.925164 1.596556 8.550423 58.579967 2.316759 12.390003 -11.187425 21.140854 6.296442 12.050542 5.846412 -15.541060 
-0.288872 1.242601 1.000585 -174.511088 1.873635 82.868534 5.031096 -3.198968 4.813867 -5.133214 4.503757 54.775658 -2.960580 13.605142 2.021320 0.000000 -0.000000 0.000000 6.876518 3.603610 -8.479170 0.871391 -7.612111 18.841202 -6.710367 -15.267244 -14.650722 0.000000 -0.000000 0.000000 0.907771 -1.755843 1.258812 1.629792 -2.069775 8.784204 -0.853565 -4.204181 -2.355678 2.835669 1.566605 -1.681510 2.360649 6.312669 14.967036 -29.712824 -0.662187 8.204065 -59.765923 -7.074806 5.832591 14.857610 -22.546171 -0.728067 -2.138866 -5.283602 -7.452928 25.382845 2.186736 8.432128 58.884495 2.539439 12.557701 -11.586358 22.138219 6.788824 11.265779 6.017468 -16.636305 
